<svg width="724" height="761" viewBox="0 0 724 761" fill="none" xmlns="http://www.w3.org/2000/svg">
<g opacity="0.3">
<mask id="mask0" mask-type="alpha" maskUnits="userSpaceOnUse" x="11" y="0" width="11" height="11">
<path d="M16.5095 10.425C19.397 10.425 21.7378 8.09121 21.7378 5.21245C21.7378 2.33368 19.397 0 16.5095 0C13.6219 0 11.2811 2.33368 11.2811 5.21245C11.2811 8.09121 13.6219 10.425 16.5095 10.425Z" fill="url(#paint0_linear)"/>
</mask>
<g mask="url(#mask0)">
<path d="M16.5095 10.425C19.397 10.425 21.7378 8.09121 21.7378 5.21245C21.7378 2.33368 19.397 0 16.5095 0C13.6219 0 11.2811 2.33368 11.2811 5.21245C11.2811 8.09121 13.6219 10.425 16.5095 10.425Z" fill="url(#paint1_linear)"/>
</g>
<mask id="mask1" mask-type="alpha" maskUnits="userSpaceOnUse" x="41" y="0" width="12" height="11">
<path d="M46.7905 10.425C49.6781 10.425 52.0189 8.09121 52.0189 5.21245C52.0189 2.33368 49.6781 0 46.7905 0C43.9029 0 41.5621 2.33368 41.5621 5.21245C41.5621 8.09121 43.9029 10.425 46.7905 10.425Z" fill="url(#paint2_linear)"/>
</mask>
<g mask="url(#mask1)">
<path d="M46.7905 10.425C49.6781 10.425 52.0189 8.09121 52.0189 5.21245C52.0189 2.33368 49.6781 0 46.7905 0C43.9029 0 41.5621 2.33368 41.5621 5.21245C41.5621 8.09121 43.9029 10.425 46.7905 10.425Z" fill="url(#paint3_linear)"/>
</g>
<mask id="mask2" mask-type="alpha" maskUnits="userSpaceOnUse" x="71" y="0" width="12" height="11">
<path d="M77.0716 10.425C79.9592 10.425 82.3 8.09121 82.3 5.21245C82.3 2.33368 79.9592 0 77.0716 0C74.184 0 71.8432 2.33368 71.8432 5.21245C71.8432 8.09121 74.184 10.425 77.0716 10.425Z" fill="url(#paint4_linear)"/>
</mask>
<g mask="url(#mask2)">
<path d="M77.0716 10.425C79.9592 10.425 82.3 8.09121 82.3 5.21245C82.3 2.33368 79.9592 0 77.0716 0C74.184 0 71.8432 2.33368 71.8432 5.21245C71.8432 8.09121 74.184 10.425 77.0716 10.425Z" fill="url(#paint5_linear)"/>
</g>
<mask id="mask3" mask-type="alpha" maskUnits="userSpaceOnUse" x="102" y="0" width="11" height="11">
<path d="M107.353 10.425C110.24 10.425 112.581 8.09121 112.581 5.21245C112.581 2.33368 110.24 0 107.353 0C104.465 0 102.124 2.33368 102.124 5.21245C102.124 8.09121 104.465 10.425 107.353 10.425Z" fill="url(#paint6_linear)"/>
</mask>
<g mask="url(#mask3)">
<path d="M107.353 10.425C110.24 10.425 112.581 8.09121 112.581 5.21245C112.581 2.33368 110.24 0 107.353 0C104.465 0 102.124 2.33368 102.124 5.21245C102.124 8.09121 104.465 10.425 107.353 10.425Z" fill="url(#paint7_linear)"/>
</g>
<mask id="mask4" mask-type="alpha" maskUnits="userSpaceOnUse" x="11" y="26" width="11" height="11">
<path d="M16.5095 36.5958C19.397 36.5958 21.7378 34.2621 21.7378 31.3834C21.7378 28.5046 19.397 26.171 16.5095 26.171C13.6219 26.171 11.2811 28.5046 11.2811 31.3834C11.2811 34.2621 13.6219 36.5958 16.5095 36.5958Z" fill="url(#paint8_linear)"/>
</mask>
<g mask="url(#mask4)">
<path d="M16.5095 36.5958C19.397 36.5958 21.7378 34.2621 21.7378 31.3834C21.7378 28.5046 19.397 26.171 16.5095 26.171C13.6219 26.171 11.2811 28.5046 11.2811 31.3834C11.2811 34.2621 13.6219 36.5958 16.5095 36.5958Z" fill="url(#paint9_linear)"/>
</g>
<mask id="mask5" mask-type="alpha" maskUnits="userSpaceOnUse" x="41" y="26" width="12" height="11">
<path d="M46.7905 36.5958C49.6781 36.5958 52.0189 34.2621 52.0189 31.3834C52.0189 28.5046 49.6781 26.171 46.7905 26.171C43.9029 26.171 41.5621 28.5046 41.5621 31.3834C41.5621 34.2621 43.9029 36.5958 46.7905 36.5958Z" fill="url(#paint10_linear)"/>
</mask>
<g mask="url(#mask5)">
<path d="M46.7905 36.5958C49.6781 36.5958 52.0189 34.2621 52.0189 31.3834C52.0189 28.5046 49.6781 26.171 46.7905 26.171C43.9029 26.171 41.5621 28.5046 41.5621 31.3834C41.5621 34.2621 43.9029 36.5958 46.7905 36.5958Z" fill="url(#paint11_linear)"/>
</g>
<mask id="mask6" mask-type="alpha" maskUnits="userSpaceOnUse" x="71" y="26" width="12" height="11">
<path d="M77.0716 36.5958C79.9592 36.5958 82.3 34.2621 82.3 31.3834C82.3 28.5046 79.9592 26.171 77.0716 26.171C74.184 26.171 71.8432 28.5046 71.8432 31.3834C71.8432 34.2621 74.184 36.5958 77.0716 36.5958Z" fill="url(#paint12_linear)"/>
</mask>
<g mask="url(#mask6)">
<path d="M77.0716 36.5958C79.9592 36.5958 82.3 34.2621 82.3 31.3834C82.3 28.5046 79.9592 26.171 77.0716 26.171C74.184 26.171 71.8432 28.5046 71.8432 31.3834C71.8432 34.2621 74.184 36.5958 77.0716 36.5958Z" fill="url(#paint13_linear)"/>
</g>
<mask id="mask7" mask-type="alpha" maskUnits="userSpaceOnUse" x="102" y="26" width="11" height="11">
<path d="M107.353 36.5958C110.24 36.5958 112.581 34.2621 112.581 31.3834C112.581 28.5046 110.24 26.171 107.353 26.171C104.465 26.171 102.124 28.5046 102.124 31.3834C102.124 34.2621 104.465 36.5958 107.353 36.5958Z" fill="url(#paint14_linear)"/>
</mask>
<g mask="url(#mask7)">
<path d="M107.353 36.5958C110.24 36.5958 112.581 34.2621 112.581 31.3834C112.581 28.5046 110.24 26.171 107.353 26.171C104.465 26.171 102.124 28.5046 102.124 31.3834C102.124 34.2621 104.465 36.5958 107.353 36.5958Z" fill="url(#paint15_linear)"/>
</g>
<mask id="mask8" mask-type="alpha" maskUnits="userSpaceOnUse" x="11" y="52" width="11" height="11">
<path d="M16.5095 62.7125C19.397 62.7125 21.7378 60.3788 21.7378 57.5C21.7378 54.6212 19.397 52.2875 16.5095 52.2875C13.6219 52.2875 11.2811 54.6212 11.2811 57.5C11.2811 60.3788 13.6219 62.7125 16.5095 62.7125Z" fill="url(#paint16_linear)"/>
</mask>
<g mask="url(#mask8)">
<path d="M16.5095 62.7125C19.397 62.7125 21.7378 60.3788 21.7378 57.5C21.7378 54.6212 19.397 52.2875 16.5095 52.2875C13.6219 52.2875 11.2811 54.6212 11.2811 57.5C11.2811 60.3788 13.6219 62.7125 16.5095 62.7125Z" fill="url(#paint17_linear)"/>
</g>
<mask id="mask9" mask-type="alpha" maskUnits="userSpaceOnUse" x="41" y="52" width="12" height="11">
<path d="M46.7905 62.7125C49.6781 62.7125 52.0189 60.3788 52.0189 57.5C52.0189 54.6212 49.6781 52.2875 46.7905 52.2875C43.9029 52.2875 41.5621 54.6212 41.5621 57.5C41.5621 60.3788 43.9029 62.7125 46.7905 62.7125Z" fill="url(#paint18_linear)"/>
</mask>
<g mask="url(#mask9)">
<path d="M46.7905 62.7125C49.6781 62.7125 52.0189 60.3788 52.0189 57.5C52.0189 54.6212 49.6781 52.2875 46.7905 52.2875C43.9029 52.2875 41.5621 54.6212 41.5621 57.5C41.5621 60.3788 43.9029 62.7125 46.7905 62.7125Z" fill="url(#paint19_linear)"/>
</g>
<mask id="mask10" mask-type="alpha" maskUnits="userSpaceOnUse" x="71" y="52" width="12" height="11">
<path d="M77.0716 62.7125C79.9592 62.7125 82.3 60.3788 82.3 57.5C82.3 54.6212 79.9592 52.2875 77.0716 52.2875C74.184 52.2875 71.8432 54.6212 71.8432 57.5C71.8432 60.3788 74.184 62.7125 77.0716 62.7125Z" fill="url(#paint20_linear)"/>
</mask>
<g mask="url(#mask10)">
<path d="M77.0716 62.7125C79.9592 62.7125 82.3 60.3788 82.3 57.5C82.3 54.6212 79.9592 52.2875 77.0716 52.2875C74.184 52.2875 71.8432 54.6212 71.8432 57.5C71.8432 60.3788 74.184 62.7125 77.0716 62.7125Z" fill="url(#paint21_linear)"/>
</g>
<mask id="mask11" mask-type="alpha" maskUnits="userSpaceOnUse" x="102" y="52" width="11" height="11">
<path d="M107.353 62.7125C110.24 62.7125 112.581 60.3788 112.581 57.5C112.581 54.6212 110.24 52.2875 107.353 52.2875C104.465 52.2875 102.124 54.6212 102.124 57.5C102.124 60.3788 104.465 62.7125 107.353 62.7125Z" fill="url(#paint22_linear)"/>
</mask>
<g mask="url(#mask11)">
<path d="M107.353 62.7125C110.24 62.7125 112.581 60.3788 112.581 57.5C112.581 54.6212 110.24 52.2875 107.353 52.2875C104.465 52.2875 102.124 54.6212 102.124 57.5C102.124 60.3788 104.465 62.7125 107.353 62.7125Z" fill="url(#paint23_linear)"/>
</g>
<mask id="mask12" mask-type="alpha" maskUnits="userSpaceOnUse" x="11" y="78" width="11" height="11">
<path d="M16.5095 88.8834C19.397 88.8834 21.7378 86.5496 21.7378 83.6709C21.7378 80.7921 19.397 78.4584 16.5095 78.4584C13.6219 78.4584 11.2811 80.7921 11.2811 83.6709C11.2811 86.5496 13.6219 88.8834 16.5095 88.8834Z" fill="url(#paint24_linear)"/>
</mask>
<g mask="url(#mask12)">
<path d="M16.5095 88.8834C19.397 88.8834 21.7378 86.5496 21.7378 83.6709C21.7378 80.7921 19.397 78.4584 16.5095 78.4584C13.6219 78.4584 11.2811 80.7921 11.2811 83.6709C11.2811 86.5496 13.6219 88.8834 16.5095 88.8834Z" fill="url(#paint25_linear)"/>
</g>
<mask id="mask13" mask-type="alpha" maskUnits="userSpaceOnUse" x="41" y="78" width="12" height="11">
<path d="M46.7905 88.8834C49.6781 88.8834 52.0189 86.5496 52.0189 83.6709C52.0189 80.7921 49.6781 78.4584 46.7905 78.4584C43.9029 78.4584 41.5621 80.7921 41.5621 83.6709C41.5621 86.5496 43.9029 88.8834 46.7905 88.8834Z" fill="url(#paint26_linear)"/>
</mask>
<g mask="url(#mask13)">
<path d="M46.7905 88.8834C49.6781 88.8834 52.0189 86.5496 52.0189 83.6709C52.0189 80.7921 49.6781 78.4584 46.7905 78.4584C43.9029 78.4584 41.5621 80.7921 41.5621 83.6709C41.5621 86.5496 43.9029 88.8834 46.7905 88.8834Z" fill="url(#paint27_linear)"/>
</g>
<mask id="mask14" mask-type="alpha" maskUnits="userSpaceOnUse" x="71" y="78" width="12" height="11">
<path d="M77.0716 88.8834C79.9592 88.8834 82.3 86.5496 82.3 83.6709C82.3 80.7921 79.9592 78.4584 77.0716 78.4584C74.184 78.4584 71.8432 80.7921 71.8432 83.6709C71.8432 86.5496 74.184 88.8834 77.0716 88.8834Z" fill="url(#paint28_linear)"/>
</mask>
<g mask="url(#mask14)">
<path d="M77.0716 88.8834C79.9592 88.8834 82.3 86.5496 82.3 83.6709C82.3 80.7921 79.9592 78.4584 77.0716 78.4584C74.184 78.4584 71.8432 80.7921 71.8432 83.6709C71.8432 86.5496 74.184 88.8834 77.0716 88.8834Z" fill="url(#paint29_linear)"/>
</g>
<mask id="mask15" mask-type="alpha" maskUnits="userSpaceOnUse" x="102" y="78" width="11" height="11">
<path d="M107.353 88.8834C110.24 88.8834 112.581 86.5496 112.581 83.6709C112.581 80.7921 110.24 78.4584 107.353 78.4584C104.465 78.4584 102.124 80.7921 102.124 83.6709C102.124 86.5496 104.465 88.8834 107.353 88.8834Z" fill="url(#paint30_linear)"/>
</mask>
<g mask="url(#mask15)">
<path d="M107.353 88.8834C110.24 88.8834 112.581 86.5496 112.581 83.6709C112.581 80.7921 110.24 78.4584 107.353 78.4584C104.465 78.4584 102.124 80.7921 102.124 83.6709C102.124 86.5496 104.465 88.8834 107.353 88.8834Z" fill="url(#paint31_linear)"/>
</g>
<mask id="mask16" mask-type="alpha" maskUnits="userSpaceOnUse" x="11" y="104" width="11" height="11">
<path d="M16.5095 115C19.397 115 21.7378 112.666 21.7378 109.788C21.7378 106.909 19.397 104.575 16.5095 104.575C13.6219 104.575 11.2811 106.909 11.2811 109.788C11.2811 112.666 13.6219 115 16.5095 115Z" fill="url(#paint32_linear)"/>
</mask>
<g mask="url(#mask16)">
<path d="M16.5095 115C19.397 115 21.7378 112.666 21.7378 109.788C21.7378 106.909 19.397 104.575 16.5095 104.575C13.6219 104.575 11.2811 106.909 11.2811 109.788C11.2811 112.666 13.6219 115 16.5095 115Z" fill="url(#paint33_linear)"/>
</g>
<mask id="mask17" mask-type="alpha" maskUnits="userSpaceOnUse" x="41" y="104" width="12" height="11">
<path d="M46.7905 115C49.6781 115 52.0189 112.666 52.0189 109.788C52.0189 106.909 49.6781 104.575 46.7905 104.575C43.9029 104.575 41.5621 106.909 41.5621 109.788C41.5621 112.666 43.9029 115 46.7905 115Z" fill="url(#paint34_linear)"/>
</mask>
<g mask="url(#mask17)">
<path d="M46.7905 115C49.6781 115 52.0189 112.666 52.0189 109.788C52.0189 106.909 49.6781 104.575 46.7905 104.575C43.9029 104.575 41.5621 106.909 41.5621 109.788C41.5621 112.666 43.9029 115 46.7905 115Z" fill="url(#paint35_linear)"/>
</g>
<mask id="mask18" mask-type="alpha" maskUnits="userSpaceOnUse" x="71" y="104" width="12" height="11">
<path d="M77.0716 115C79.9592 115 82.3 112.666 82.3 109.788C82.3 106.909 79.9592 104.575 77.0716 104.575C74.184 104.575 71.8432 106.909 71.8432 109.788C71.8432 112.666 74.184 115 77.0716 115Z" fill="url(#paint36_linear)"/>
</mask>
<g mask="url(#mask18)">
<path d="M77.0716 115C79.9592 115 82.3 112.666 82.3 109.788C82.3 106.909 79.9592 104.575 77.0716 104.575C74.184 104.575 71.8432 106.909 71.8432 109.788C71.8432 112.666 74.184 115 77.0716 115Z" fill="url(#paint37_linear)"/>
</g>
<mask id="mask19" mask-type="alpha" maskUnits="userSpaceOnUse" x="102" y="104" width="11" height="11">
<path d="M107.353 115C110.24 115 112.581 112.666 112.581 109.788C112.581 106.909 110.24 104.575 107.353 104.575C104.465 104.575 102.124 106.909 102.124 109.788C102.124 112.666 104.465 115 107.353 115Z" fill="url(#paint38_linear)"/>
</mask>
<g mask="url(#mask19)">
<path d="M107.353 115C110.24 115 112.581 112.666 112.581 109.788C112.581 106.909 110.24 104.575 107.353 104.575C104.465 104.575 102.124 106.909 102.124 109.788C102.124 112.666 104.465 115 107.353 115Z" fill="url(#paint39_linear)"/>
</g>
</g>
<g opacity="0.3" filter="url(#filter0_d)">
<mask id="mask20" mask-type="alpha" maskUnits="userSpaceOnUse" x="588" y="606" width="11" height="11">
<path d="M593.228 616.425C596.116 616.425 598.457 614.091 598.457 611.212C598.457 608.334 596.116 606 593.228 606C590.341 606 588 608.334 588 611.212C588 614.091 590.341 616.425 593.228 616.425Z" fill="url(#paint40_linear)"/>
</mask>
<g mask="url(#mask20)">
<path d="M593.228 616.425C596.116 616.425 598.457 614.091 598.457 611.212C598.457 608.334 596.116 606 593.228 606C590.341 606 588 608.334 588 611.212C588 614.091 590.341 616.425 593.228 616.425Z" fill="url(#paint41_linear)"/>
</g>
<mask id="mask21" mask-type="alpha" maskUnits="userSpaceOnUse" x="618" y="606" width="11" height="11">
<path d="M623.509 616.425C626.397 616.425 628.738 614.091 628.738 611.212C628.738 608.334 626.397 606 623.509 606C620.622 606 618.281 608.334 618.281 611.212C618.281 614.091 620.622 616.425 623.509 616.425Z" fill="url(#paint42_linear)"/>
</mask>
<g mask="url(#mask21)">
<path d="M623.509 616.425C626.397 616.425 628.738 614.091 628.738 611.212C628.738 608.334 626.397 606 623.509 606C620.622 606 618.281 608.334 618.281 611.212C618.281 614.091 620.622 616.425 623.509 616.425Z" fill="url(#paint43_linear)"/>
</g>
<mask id="mask22" mask-type="alpha" maskUnits="userSpaceOnUse" x="648" y="606" width="12" height="11">
<path d="M653.79 616.425C656.678 616.425 659.019 614.091 659.019 611.212C659.019 608.334 656.678 606 653.79 606C650.903 606 648.562 608.334 648.562 611.212C648.562 614.091 650.903 616.425 653.79 616.425Z" fill="url(#paint44_linear)"/>
</mask>
<g mask="url(#mask22)">
<path d="M653.79 616.425C656.678 616.425 659.019 614.091 659.019 611.212C659.019 608.334 656.678 606 653.79 606C650.903 606 648.562 608.334 648.562 611.212C648.562 614.091 650.903 616.425 653.79 616.425Z" fill="url(#paint45_linear)"/>
</g>
<mask id="mask23" mask-type="alpha" maskUnits="userSpaceOnUse" x="678" y="606" width="12" height="11">
<path d="M684.072 616.425C686.959 616.425 689.3 614.091 689.3 611.212C689.3 608.334 686.959 606 684.072 606C681.184 606 678.843 608.334 678.843 611.212C678.843 614.091 681.184 616.425 684.072 616.425Z" fill="url(#paint46_linear)"/>
</mask>
<g mask="url(#mask23)">
<path d="M684.072 616.425C686.959 616.425 689.3 614.091 689.3 611.212C689.3 608.334 686.959 606 684.072 606C681.184 606 678.843 608.334 678.843 611.212C678.843 614.091 681.184 616.425 684.072 616.425Z" fill="url(#paint47_linear)"/>
</g>
<mask id="mask24" mask-type="alpha" maskUnits="userSpaceOnUse" x="709" y="606" width="11" height="11">
<path d="M714.353 616.425C717.24 616.425 719.581 614.091 719.581 611.212C719.581 608.334 717.24 606 714.353 606C711.465 606 709.124 608.334 709.124 611.212C709.124 614.091 711.465 616.425 714.353 616.425Z" fill="url(#paint48_linear)"/>
</mask>
<g mask="url(#mask24)">
<path d="M714.353 616.425C717.24 616.425 719.581 614.091 719.581 611.212C719.581 608.334 717.24 606 714.353 606C711.465 606 709.124 608.334 709.124 611.212C709.124 614.091 711.465 616.425 714.353 616.425Z" fill="url(#paint49_linear)"/>
</g>
<mask id="mask25" mask-type="alpha" maskUnits="userSpaceOnUse" x="588" y="632" width="11" height="11">
<path d="M593.228 642.596C596.116 642.596 598.457 640.262 598.457 637.383C598.457 634.505 596.116 632.171 593.228 632.171C590.341 632.171 588 634.505 588 637.383C588 640.262 590.341 642.596 593.228 642.596Z" fill="url(#paint50_linear)"/>
</mask>
<g mask="url(#mask25)">
<path d="M593.228 642.596C596.116 642.596 598.457 640.262 598.457 637.383C598.457 634.505 596.116 632.171 593.228 632.171C590.341 632.171 588 634.505 588 637.383C588 640.262 590.341 642.596 593.228 642.596Z" fill="url(#paint51_linear)"/>
</g>
<mask id="mask26" mask-type="alpha" maskUnits="userSpaceOnUse" x="618" y="632" width="11" height="11">
<path d="M623.509 642.596C626.397 642.596 628.738 640.262 628.738 637.383C628.738 634.505 626.397 632.171 623.509 632.171C620.622 632.171 618.281 634.505 618.281 637.383C618.281 640.262 620.622 642.596 623.509 642.596Z" fill="url(#paint52_linear)"/>
</mask>
<g mask="url(#mask26)">
<path d="M623.509 642.596C626.397 642.596 628.738 640.262 628.738 637.383C628.738 634.505 626.397 632.171 623.509 632.171C620.622 632.171 618.281 634.505 618.281 637.383C618.281 640.262 620.622 642.596 623.509 642.596Z" fill="url(#paint53_linear)"/>
</g>
<mask id="mask27" mask-type="alpha" maskUnits="userSpaceOnUse" x="648" y="632" width="12" height="11">
<path d="M653.79 642.596C656.678 642.596 659.019 640.262 659.019 637.383C659.019 634.505 656.678 632.171 653.79 632.171C650.903 632.171 648.562 634.505 648.562 637.383C648.562 640.262 650.903 642.596 653.79 642.596Z" fill="url(#paint54_linear)"/>
</mask>
<g mask="url(#mask27)">
<path d="M653.79 642.596C656.678 642.596 659.019 640.262 659.019 637.383C659.019 634.505 656.678 632.171 653.79 632.171C650.903 632.171 648.562 634.505 648.562 637.383C648.562 640.262 650.903 642.596 653.79 642.596Z" fill="url(#paint55_linear)"/>
</g>
<mask id="mask28" mask-type="alpha" maskUnits="userSpaceOnUse" x="678" y="632" width="12" height="11">
<path d="M684.072 642.596C686.959 642.596 689.3 640.262 689.3 637.383C689.3 634.505 686.959 632.171 684.072 632.171C681.184 632.171 678.843 634.505 678.843 637.383C678.843 640.262 681.184 642.596 684.072 642.596Z" fill="url(#paint56_linear)"/>
</mask>
<g mask="url(#mask28)">
<path d="M684.072 642.596C686.959 642.596 689.3 640.262 689.3 637.383C689.3 634.505 686.959 632.171 684.072 632.171C681.184 632.171 678.843 634.505 678.843 637.383C678.843 640.262 681.184 642.596 684.072 642.596Z" fill="url(#paint57_linear)"/>
</g>
<mask id="mask29" mask-type="alpha" maskUnits="userSpaceOnUse" x="709" y="632" width="11" height="11">
<path d="M714.353 642.596C717.24 642.596 719.581 640.262 719.581 637.383C719.581 634.505 717.24 632.171 714.353 632.171C711.465 632.171 709.124 634.505 709.124 637.383C709.124 640.262 711.465 642.596 714.353 642.596Z" fill="url(#paint58_linear)"/>
</mask>
<g mask="url(#mask29)">
<path d="M714.353 642.596C717.24 642.596 719.581 640.262 719.581 637.383C719.581 634.505 717.24 632.171 714.353 632.171C711.465 632.171 709.124 634.505 709.124 637.383C709.124 640.262 711.465 642.596 714.353 642.596Z" fill="url(#paint59_linear)"/>
</g>
<mask id="mask30" mask-type="alpha" maskUnits="userSpaceOnUse" x="588" y="658" width="11" height="11">
<path d="M593.228 668.712C596.116 668.712 598.457 666.379 598.457 663.5C598.457 660.621 596.116 658.287 593.228 658.287C590.341 658.287 588 660.621 588 663.5C588 666.379 590.341 668.712 593.228 668.712Z" fill="url(#paint60_linear)"/>
</mask>
<g mask="url(#mask30)">
<path d="M593.228 668.712C596.116 668.712 598.457 666.379 598.457 663.5C598.457 660.621 596.116 658.287 593.228 658.287C590.341 658.287 588 660.621 588 663.5C588 666.379 590.341 668.712 593.228 668.712Z" fill="url(#paint61_linear)"/>
</g>
<mask id="mask31" mask-type="alpha" maskUnits="userSpaceOnUse" x="618" y="658" width="11" height="11">
<path d="M623.509 668.712C626.397 668.712 628.738 666.379 628.738 663.5C628.738 660.621 626.397 658.287 623.509 658.287C620.622 658.287 618.281 660.621 618.281 663.5C618.281 666.379 620.622 668.712 623.509 668.712Z" fill="url(#paint62_linear)"/>
</mask>
<g mask="url(#mask31)">
<path d="M623.509 668.712C626.397 668.712 628.738 666.379 628.738 663.5C628.738 660.621 626.397 658.287 623.509 658.287C620.622 658.287 618.281 660.621 618.281 663.5C618.281 666.379 620.622 668.712 623.509 668.712Z" fill="url(#paint63_linear)"/>
</g>
<mask id="mask32" mask-type="alpha" maskUnits="userSpaceOnUse" x="648" y="658" width="12" height="11">
<path d="M653.79 668.712C656.678 668.712 659.019 666.379 659.019 663.5C659.019 660.621 656.678 658.287 653.79 658.287C650.903 658.287 648.562 660.621 648.562 663.5C648.562 666.379 650.903 668.712 653.79 668.712Z" fill="url(#paint64_linear)"/>
</mask>
<g mask="url(#mask32)">
<path d="M653.79 668.712C656.678 668.712 659.019 666.379 659.019 663.5C659.019 660.621 656.678 658.287 653.79 658.287C650.903 658.287 648.562 660.621 648.562 663.5C648.562 666.379 650.903 668.712 653.79 668.712Z" fill="url(#paint65_linear)"/>
</g>
<mask id="mask33" mask-type="alpha" maskUnits="userSpaceOnUse" x="678" y="658" width="12" height="11">
<path d="M684.072 668.712C686.959 668.712 689.3 666.379 689.3 663.5C689.3 660.621 686.959 658.287 684.072 658.287C681.184 658.287 678.843 660.621 678.843 663.5C678.843 666.379 681.184 668.712 684.072 668.712Z" fill="url(#paint66_linear)"/>
</mask>
<g mask="url(#mask33)">
<path d="M684.072 668.712C686.959 668.712 689.3 666.379 689.3 663.5C689.3 660.621 686.959 658.287 684.072 658.287C681.184 658.287 678.843 660.621 678.843 663.5C678.843 666.379 681.184 668.712 684.072 668.712Z" fill="url(#paint67_linear)"/>
</g>
<mask id="mask34" mask-type="alpha" maskUnits="userSpaceOnUse" x="709" y="658" width="11" height="11">
<path d="M714.353 668.712C717.24 668.712 719.581 666.379 719.581 663.5C719.581 660.621 717.24 658.287 714.353 658.287C711.465 658.287 709.124 660.621 709.124 663.5C709.124 666.379 711.465 668.712 714.353 668.712Z" fill="url(#paint68_linear)"/>
</mask>
<g mask="url(#mask34)">
<path d="M714.353 668.712C717.24 668.712 719.581 666.379 719.581 663.5C719.581 660.621 717.24 658.287 714.353 658.287C711.465 658.287 709.124 660.621 709.124 663.5C709.124 666.379 711.465 668.712 714.353 668.712Z" fill="url(#paint69_linear)"/>
</g>
<mask id="mask35" mask-type="alpha" maskUnits="userSpaceOnUse" x="588" y="684" width="11" height="11">
<path d="M593.228 694.883C596.116 694.883 598.457 692.55 598.457 689.671C598.457 686.792 596.116 684.458 593.228 684.458C590.341 684.458 588 686.792 588 689.671C588 692.55 590.341 694.883 593.228 694.883Z" fill="url(#paint70_linear)"/>
</mask>
<g mask="url(#mask35)">
<path d="M593.228 694.883C596.116 694.883 598.457 692.55 598.457 689.671C598.457 686.792 596.116 684.458 593.228 684.458C590.341 684.458 588 686.792 588 689.671C588 692.55 590.341 694.883 593.228 694.883Z" fill="url(#paint71_linear)"/>
</g>
<mask id="mask36" mask-type="alpha" maskUnits="userSpaceOnUse" x="618" y="684" width="11" height="11">
<path d="M623.509 694.883C626.397 694.883 628.738 692.55 628.738 689.671C628.738 686.792 626.397 684.458 623.509 684.458C620.622 684.458 618.281 686.792 618.281 689.671C618.281 692.55 620.622 694.883 623.509 694.883Z" fill="url(#paint72_linear)"/>
</mask>
<g mask="url(#mask36)">
<path d="M623.509 694.883C626.397 694.883 628.738 692.55 628.738 689.671C628.738 686.792 626.397 684.458 623.509 684.458C620.622 684.458 618.281 686.792 618.281 689.671C618.281 692.55 620.622 694.883 623.509 694.883Z" fill="url(#paint73_linear)"/>
</g>
<mask id="mask37" mask-type="alpha" maskUnits="userSpaceOnUse" x="648" y="684" width="12" height="11">
<path d="M653.79 694.883C656.678 694.883 659.019 692.55 659.019 689.671C659.019 686.792 656.678 684.458 653.79 684.458C650.903 684.458 648.562 686.792 648.562 689.671C648.562 692.55 650.903 694.883 653.79 694.883Z" fill="url(#paint74_linear)"/>
</mask>
<g mask="url(#mask37)">
<path d="M653.79 694.883C656.678 694.883 659.019 692.55 659.019 689.671C659.019 686.792 656.678 684.458 653.79 684.458C650.903 684.458 648.562 686.792 648.562 689.671C648.562 692.55 650.903 694.883 653.79 694.883Z" fill="url(#paint75_linear)"/>
</g>
<mask id="mask38" mask-type="alpha" maskUnits="userSpaceOnUse" x="678" y="684" width="12" height="11">
<path d="M684.072 694.883C686.959 694.883 689.3 692.55 689.3 689.671C689.3 686.792 686.959 684.458 684.072 684.458C681.184 684.458 678.843 686.792 678.843 689.671C678.843 692.55 681.184 694.883 684.072 694.883Z" fill="url(#paint76_linear)"/>
</mask>
<g mask="url(#mask38)">
<path d="M684.072 694.883C686.959 694.883 689.3 692.55 689.3 689.671C689.3 686.792 686.959 684.458 684.072 684.458C681.184 684.458 678.843 686.792 678.843 689.671C678.843 692.55 681.184 694.883 684.072 694.883Z" fill="url(#paint77_linear)"/>
</g>
<mask id="mask39" mask-type="alpha" maskUnits="userSpaceOnUse" x="709" y="684" width="11" height="11">
<path d="M714.353 694.883C717.24 694.883 719.581 692.55 719.581 689.671C719.581 686.792 717.24 684.458 714.353 684.458C711.465 684.458 709.124 686.792 709.124 689.671C709.124 692.55 711.465 694.883 714.353 694.883Z" fill="url(#paint78_linear)"/>
</mask>
<g mask="url(#mask39)">
<path d="M714.353 694.883C717.24 694.883 719.581 692.55 719.581 689.671C719.581 686.792 717.24 684.458 714.353 684.458C711.465 684.458 709.124 686.792 709.124 689.671C709.124 692.55 711.465 694.883 714.353 694.883Z" fill="url(#paint79_linear)"/>
</g>
<mask id="mask40" mask-type="alpha" maskUnits="userSpaceOnUse" x="588" y="710" width="11" height="11">
<path d="M593.228 721C596.116 721 598.457 718.666 598.457 715.788C598.457 712.909 596.116 710.575 593.228 710.575C590.341 710.575 588 712.909 588 715.788C588 718.666 590.341 721 593.228 721Z" fill="url(#paint80_linear)"/>
</mask>
<g mask="url(#mask40)">
<path d="M593.228 721C596.116 721 598.457 718.666 598.457 715.788C598.457 712.909 596.116 710.575 593.228 710.575C590.341 710.575 588 712.909 588 715.788C588 718.666 590.341 721 593.228 721Z" fill="url(#paint81_linear)"/>
</g>
<mask id="mask41" mask-type="alpha" maskUnits="userSpaceOnUse" x="618" y="710" width="11" height="11">
<path d="M623.509 721C626.397 721 628.738 718.666 628.738 715.788C628.738 712.909 626.397 710.575 623.509 710.575C620.622 710.575 618.281 712.909 618.281 715.788C618.281 718.666 620.622 721 623.509 721Z" fill="url(#paint82_linear)"/>
</mask>
<g mask="url(#mask41)">
<path d="M623.509 721C626.397 721 628.738 718.666 628.738 715.788C628.738 712.909 626.397 710.575 623.509 710.575C620.622 710.575 618.281 712.909 618.281 715.788C618.281 718.666 620.622 721 623.509 721Z" fill="url(#paint83_linear)"/>
</g>
<mask id="mask42" mask-type="alpha" maskUnits="userSpaceOnUse" x="648" y="710" width="12" height="11">
<path d="M653.79 721C656.678 721 659.019 718.666 659.019 715.788C659.019 712.909 656.678 710.575 653.79 710.575C650.903 710.575 648.562 712.909 648.562 715.788C648.562 718.666 650.903 721 653.79 721Z" fill="url(#paint84_linear)"/>
</mask>
<g mask="url(#mask42)">
<path d="M653.79 721C656.678 721 659.019 718.666 659.019 715.788C659.019 712.909 656.678 710.575 653.79 710.575C650.903 710.575 648.562 712.909 648.562 715.788C648.562 718.666 650.903 721 653.79 721Z" fill="url(#paint85_linear)"/>
</g>
<mask id="mask43" mask-type="alpha" maskUnits="userSpaceOnUse" x="678" y="710" width="12" height="11">
<path d="M684.072 721C686.959 721 689.3 718.666 689.3 715.788C689.3 712.909 686.959 710.575 684.072 710.575C681.184 710.575 678.843 712.909 678.843 715.788C678.843 718.666 681.184 721 684.072 721Z" fill="url(#paint86_linear)"/>
</mask>
<g mask="url(#mask43)">
<path d="M684.072 721C686.959 721 689.3 718.666 689.3 715.788C689.3 712.909 686.959 710.575 684.072 710.575C681.184 710.575 678.843 712.909 678.843 715.788C678.843 718.666 681.184 721 684.072 721Z" fill="url(#paint87_linear)"/>
</g>
<mask id="mask44" mask-type="alpha" maskUnits="userSpaceOnUse" x="709" y="710" width="11" height="11">
<path d="M714.353 721C717.24 721 719.581 718.666 719.581 715.788C719.581 712.909 717.24 710.575 714.353 710.575C711.465 710.575 709.124 712.909 709.124 715.788C709.124 718.666 711.465 721 714.353 721Z" fill="url(#paint88_linear)"/>
</mask>
<g mask="url(#mask44)">
<path d="M714.353 721C717.24 721 719.581 718.666 719.581 715.788C719.581 712.909 717.24 710.575 714.353 710.575C711.465 710.575 709.124 712.909 709.124 715.788C709.124 718.666 711.465 721 714.353 721Z" fill="#8FC6E5"/>
</g>
</g>
<path d="M460.758 755.162C455.715 755.162 451.626 751.096 451.626 746.081C451.626 741.066 455.715 737 460.758 737C465.801 737 469.89 741.066 469.89 746.081C469.89 751.08 465.801 755.162 460.758 755.162Z" stroke="#97C3F9" stroke-width="3" stroke-miterlimit="10" stroke-linecap="round" stroke-linejoin="round"/>
<path d="M454.458 752.645L448 759.052" stroke="#97C3F9" stroke-width="3" stroke-miterlimit="10" stroke-linecap="round" stroke-linejoin="round"/>
<path d="M42.7949 281.046L42.7949 267.52" stroke="#97C3F9" stroke-width="3" stroke-miterlimit="10" stroke-linecap="round" stroke-linejoin="round"/>
<path d="M447.022 225.422C442.472 225.422 438.765 221.752 438.765 217.211C438.765 212.686 442.456 209 447.022 209C451.572 209 455.279 212.67 455.279 217.211C455.263 221.752 451.572 225.422 447.022 225.422Z" stroke="#97C3F9" stroke-width="3" stroke-miterlimit="10" stroke-linecap="round" stroke-linejoin="round"/>
<path d="M611.899 432.169C607.349 432.169 603.642 428.499 603.642 423.958C603.642 419.434 607.333 415.747 611.899 415.747C616.449 415.747 620.156 419.418 620.156 423.958C620.14 428.499 616.449 432.169 611.899 432.169Z" stroke="#97C3F9" stroke-width="3" stroke-miterlimit="10" stroke-linecap="round" stroke-linejoin="round"/>
<path d="M92.7474 558.906C88.1973 558.906 84.4904 555.236 84.4904 550.695C84.4904 546.17 88.1814 542.484 92.7474 542.484C97.2975 542.484 101.004 546.155 101.004 550.695C100.988 555.236 97.2975 558.906 92.7474 558.906Z" stroke="#97C3F9" stroke-width="3" stroke-miterlimit="10" stroke-linecap="round" stroke-linejoin="round"/>
<defs>
<filter id="filter0_d" x="584" y="606" width="139.581" height="123" filterUnits="userSpaceOnUse" color-interpolation-filters="sRGB">
<feFlood flood-opacity="0" result="BackgroundImageFix"/>
<feColorMatrix in="SourceAlpha" type="matrix" values="0 0 0 0 0 0 0 0 0 0 0 0 0 0 0 0 0 0 127 0"/>
<feOffset dy="4"/>
<feGaussianBlur stdDeviation="2"/>
<feColorMatrix type="matrix" values="0 0 0 0 0 0 0 0 0 0 0 0 0 0 0 0 0 0 0.25 0"/>
<feBlend mode="normal" in2="BackgroundImageFix" result="effect1_dropShadow"/>
<feBlend mode="normal" in="SourceGraphic" in2="effect1_dropShadow" result="shape"/>
</filter>
<linearGradient id="paint0_linear" x1="62.2005" y1="120.843" x2="-9.20111" y2="-60.9613" gradientUnits="userSpaceOnUse">
<stop/>
<stop offset="1" stop-color="white"/>
</linearGradient>
<linearGradient id="paint1_linear" x1="62.2005" y1="120.843" x2="-9.20111" y2="-60.9613" gradientUnits="userSpaceOnUse">
<stop stop-color="#97C3F9"/>
<stop offset="1" stop-color="#93C1F9"/>
</linearGradient>
<linearGradient id="paint2_linear" x1="88.4049" y1="110.551" x2="17.0033" y2="-71.2526" gradientUnits="userSpaceOnUse">
<stop/>
<stop offset="1" stop-color="white"/>
</linearGradient>
<linearGradient id="paint3_linear" x1="88.4049" y1="110.551" x2="17.0033" y2="-71.2526" gradientUnits="userSpaceOnUse">
<stop stop-color="#97C3F9"/>
<stop offset="1" stop-color="#93C1F9"/>
</linearGradient>
<linearGradient id="paint4_linear" x1="114.609" y1="100.259" x2="43.2075" y2="-81.5444" gradientUnits="userSpaceOnUse">
<stop/>
<stop offset="1" stop-color="white"/>
</linearGradient>
<linearGradient id="paint5_linear" x1="114.609" y1="100.259" x2="43.2075" y2="-81.5444" gradientUnits="userSpaceOnUse">
<stop stop-color="#97C3F9"/>
<stop offset="1" stop-color="#93C1F9"/>
</linearGradient>
<linearGradient id="paint6_linear" x1="140.813" y1="89.9679" x2="69.4119" y2="-91.8359" gradientUnits="userSpaceOnUse">
<stop/>
<stop offset="1" stop-color="white"/>
</linearGradient>
<linearGradient id="paint7_linear" x1="140.813" y1="89.9679" x2="69.4119" y2="-91.8359" gradientUnits="userSpaceOnUse">
<stop stop-color="#97C3F9"/>
<stop offset="1" stop-color="#93C1F9"/>
</linearGradient>
<linearGradient id="paint8_linear" x1="53.2581" y1="124.354" x2="-18.1423" y2="-57.449" gradientUnits="userSpaceOnUse">
<stop/>
<stop offset="1" stop-color="white"/>
</linearGradient>
<linearGradient id="paint9_linear" x1="53.2581" y1="124.354" x2="-18.1423" y2="-57.449" gradientUnits="userSpaceOnUse">
<stop stop-color="#97C3F9"/>
<stop offset="1" stop-color="#93C1F9"/>
</linearGradient>
<linearGradient id="paint10_linear" x1="79.4624" y1="114.062" x2="8.06203" y2="-67.7403" gradientUnits="userSpaceOnUse">
<stop/>
<stop offset="1" stop-color="white"/>
</linearGradient>
<linearGradient id="paint11_linear" x1="79.4624" y1="114.062" x2="8.06203" y2="-67.7403" gradientUnits="userSpaceOnUse">
<stop stop-color="#97C3F9"/>
<stop offset="1" stop-color="#93C1F9"/>
</linearGradient>
<linearGradient id="paint12_linear" x1="105.667" y1="103.771" x2="34.2663" y2="-78.0318" gradientUnits="userSpaceOnUse">
<stop/>
<stop offset="1" stop-color="white"/>
</linearGradient>
<linearGradient id="paint13_linear" x1="105.667" y1="103.771" x2="34.2663" y2="-78.0318" gradientUnits="userSpaceOnUse">
<stop stop-color="#97C3F9"/>
<stop offset="1" stop-color="#93C1F9"/>
</linearGradient>
<linearGradient id="paint14_linear" x1="131.871" y1="93.4794" x2="60.4707" y2="-88.3231" gradientUnits="userSpaceOnUse">
<stop/>
<stop offset="1" stop-color="white"/>
</linearGradient>
<linearGradient id="paint15_linear" x1="131.871" y1="93.4794" x2="60.4707" y2="-88.3231" gradientUnits="userSpaceOnUse">
<stop stop-color="#97C3F9"/>
<stop offset="1" stop-color="#93C1F9"/>
</linearGradient>
<linearGradient id="paint16_linear" x1="44.3157" y1="127.866" x2="-27.0859" y2="-53.9374" gradientUnits="userSpaceOnUse">
<stop/>
<stop offset="1" stop-color="white"/>
</linearGradient>
<linearGradient id="paint17_linear" x1="44.3157" y1="127.866" x2="-27.0859" y2="-53.9374" gradientUnits="userSpaceOnUse">
<stop stop-color="#97C3F9"/>
<stop offset="1" stop-color="#93C1F9"/>
</linearGradient>
<linearGradient id="paint18_linear" x1="70.52" y1="117.575" x2="-0.88154" y2="-64.2288" gradientUnits="userSpaceOnUse">
<stop/>
<stop offset="1" stop-color="white"/>
</linearGradient>
<linearGradient id="paint19_linear" x1="70.52" y1="117.575" x2="-0.88154" y2="-64.2288" gradientUnits="userSpaceOnUse">
<stop stop-color="#97C3F9"/>
<stop offset="1" stop-color="#93C1F9"/>
</linearGradient>
<linearGradient id="paint20_linear" x1="96.7243" y1="107.283" x2="25.3227" y2="-74.5204" gradientUnits="userSpaceOnUse">
<stop/>
<stop offset="1" stop-color="white"/>
</linearGradient>
<linearGradient id="paint21_linear" x1="96.7243" y1="107.283" x2="25.3227" y2="-74.5204" gradientUnits="userSpaceOnUse">
<stop stop-color="#97C3F9"/>
<stop offset="1" stop-color="#93C1F9"/>
</linearGradient>
<linearGradient id="paint22_linear" x1="122.929" y1="96.9919" x2="51.5271" y2="-84.8119" gradientUnits="userSpaceOnUse">
<stop/>
<stop offset="1" stop-color="white"/>
</linearGradient>
<linearGradient id="paint23_linear" x1="122.929" y1="96.9919" x2="51.5271" y2="-84.8119" gradientUnits="userSpaceOnUse">
<stop stop-color="#97C3F9"/>
<stop offset="1" stop-color="#93C1F9"/>
</linearGradient>
<linearGradient id="paint24_linear" x1="35.3734" y1="131.379" x2="-36.0283" y2="-50.4253" gradientUnits="userSpaceOnUse">
<stop/>
<stop offset="1" stop-color="white"/>
</linearGradient>
<linearGradient id="paint25_linear" x1="35.3734" y1="131.379" x2="-36.0283" y2="-50.4253" gradientUnits="userSpaceOnUse">
<stop stop-color="#97C3F9"/>
<stop offset="1" stop-color="#93C1F9"/>
</linearGradient>
<linearGradient id="paint26_linear" x1="61.5776" y1="121.087" x2="-9.82394" y2="-60.7168" gradientUnits="userSpaceOnUse">
<stop/>
<stop offset="1" stop-color="white"/>
</linearGradient>
<linearGradient id="paint27_linear" x1="61.5776" y1="121.087" x2="-9.82394" y2="-60.7168" gradientUnits="userSpaceOnUse">
<stop stop-color="#97C3F9"/>
<stop offset="1" stop-color="#93C1F9"/>
</linearGradient>
<linearGradient id="paint28_linear" x1="87.782" y1="110.795" x2="16.3804" y2="-71.0084" gradientUnits="userSpaceOnUse">
<stop/>
<stop offset="1" stop-color="white"/>
</linearGradient>
<linearGradient id="paint29_linear" x1="87.782" y1="110.795" x2="16.3804" y2="-71.0084" gradientUnits="userSpaceOnUse">
<stop stop-color="#97C3F9"/>
<stop offset="1" stop-color="#93C1F9"/>
</linearGradient>
<linearGradient id="paint30_linear" x1="113.986" y1="100.504" x2="42.5847" y2="-81.3" gradientUnits="userSpaceOnUse">
<stop/>
<stop offset="1" stop-color="white"/>
</linearGradient>
<linearGradient id="paint31_linear" x1="113.986" y1="100.504" x2="42.5847" y2="-81.3" gradientUnits="userSpaceOnUse">
<stop stop-color="#97C3F9"/>
<stop offset="1" stop-color="#93C1F9"/>
</linearGradient>
<linearGradient id="paint32_linear" x1="26.431" y1="134.89" x2="-44.9706" y2="-46.9134" gradientUnits="userSpaceOnUse">
<stop/>
<stop offset="1" stop-color="white"/>
</linearGradient>
<linearGradient id="paint33_linear" x1="26.431" y1="134.89" x2="-44.9706" y2="-46.9134" gradientUnits="userSpaceOnUse">
<stop stop-color="#97C3F9"/>
<stop offset="1" stop-color="#93C1F9"/>
</linearGradient>
<linearGradient id="paint34_linear" x1="52.6353" y1="124.599" x2="-18.7663" y2="-57.2047" gradientUnits="userSpaceOnUse">
<stop/>
<stop offset="1" stop-color="white"/>
</linearGradient>
<linearGradient id="paint35_linear" x1="52.6353" y1="124.599" x2="-18.7663" y2="-57.2047" gradientUnits="userSpaceOnUse">
<stop stop-color="#97C3F9"/>
<stop offset="1" stop-color="#93C1F9"/>
</linearGradient>
<linearGradient id="paint36_linear" x1="78.8397" y1="114.307" x2="7.43803" y2="-67.4964" gradientUnits="userSpaceOnUse">
<stop/>
<stop offset="1" stop-color="white"/>
</linearGradient>
<linearGradient id="paint37_linear" x1="78.8397" y1="114.307" x2="7.43803" y2="-67.4964" gradientUnits="userSpaceOnUse">
<stop stop-color="#97C3F9"/>
<stop offset="1" stop-color="#93C1F9"/>
</linearGradient>
<linearGradient id="paint38_linear" x1="105.044" y1="104.016" x2="33.6424" y2="-77.7879" gradientUnits="userSpaceOnUse">
<stop/>
<stop offset="1" stop-color="white"/>
</linearGradient>
<linearGradient id="paint39_linear" x1="105.044" y1="104.016" x2="33.6424" y2="-77.7879" gradientUnits="userSpaceOnUse">
<stop stop-color="#8FC6E5"/>
<stop offset="1" stop-color="#93C1F9"/>
</linearGradient>
<linearGradient id="paint40_linear" x1="642.996" y1="737.134" x2="571.594" y2="555.33" gradientUnits="userSpaceOnUse">
<stop/>
<stop offset="1" stop-color="white"/>
</linearGradient>
<linearGradient id="paint41_linear" x1="642.996" y1="737.134" x2="571.594" y2="555.33" gradientUnits="userSpaceOnUse">
<stop stop-color="#97C3F9"/>
<stop offset="1" stop-color="#93C1F9"/>
</linearGradient>
<linearGradient id="paint42_linear" x1="669.201" y1="726.843" x2="597.799" y2="545.039" gradientUnits="userSpaceOnUse">
<stop/>
<stop offset="1" stop-color="white"/>
</linearGradient>
<linearGradient id="paint43_linear" x1="669.201" y1="726.843" x2="597.799" y2="545.039" gradientUnits="userSpaceOnUse">
<stop stop-color="#97C3F9"/>
<stop offset="1" stop-color="#93C1F9"/>
</linearGradient>
<linearGradient id="paint44_linear" x1="695.405" y1="716.551" x2="624.003" y2="534.747" gradientUnits="userSpaceOnUse">
<stop/>
<stop offset="1" stop-color="white"/>
</linearGradient>
<linearGradient id="paint45_linear" x1="695.405" y1="716.551" x2="624.003" y2="534.747" gradientUnits="userSpaceOnUse">
<stop stop-color="#97C3F9"/>
<stop offset="1" stop-color="#93C1F9"/>
</linearGradient>
<linearGradient id="paint46_linear" x1="721.609" y1="706.259" x2="650.208" y2="524.456" gradientUnits="userSpaceOnUse">
<stop/>
<stop offset="1" stop-color="white"/>
</linearGradient>
<linearGradient id="paint47_linear" x1="721.609" y1="706.259" x2="650.208" y2="524.456" gradientUnits="userSpaceOnUse">
<stop stop-color="#97C3F9"/>
<stop offset="1" stop-color="#93C1F9"/>
</linearGradient>
<linearGradient id="paint48_linear" x1="747.813" y1="695.968" x2="676.412" y2="514.164" gradientUnits="userSpaceOnUse">
<stop/>
<stop offset="1" stop-color="white"/>
</linearGradient>
<linearGradient id="paint49_linear" x1="747.813" y1="695.968" x2="676.412" y2="514.164" gradientUnits="userSpaceOnUse">
<stop stop-color="#97C3F9"/>
<stop offset="1" stop-color="#93C1F9"/>
</linearGradient>
<linearGradient id="paint50_linear" x1="634.054" y1="740.645" x2="562.653" y2="558.843" gradientUnits="userSpaceOnUse">
<stop/>
<stop offset="1" stop-color="white"/>
</linearGradient>
<linearGradient id="paint51_linear" x1="634.054" y1="740.645" x2="562.653" y2="558.843" gradientUnits="userSpaceOnUse">
<stop stop-color="#97C3F9"/>
<stop offset="1" stop-color="#93C1F9"/>
</linearGradient>
<linearGradient id="paint52_linear" x1="660.258" y1="730.354" x2="588.858" y2="548.551" gradientUnits="userSpaceOnUse">
<stop/>
<stop offset="1" stop-color="white"/>
</linearGradient>
<linearGradient id="paint53_linear" x1="660.258" y1="730.354" x2="588.858" y2="548.551" gradientUnits="userSpaceOnUse">
<stop stop-color="#97C3F9"/>
<stop offset="1" stop-color="#93C1F9"/>
</linearGradient>
<linearGradient id="paint54_linear" x1="686.462" y1="720.062" x2="615.062" y2="538.26" gradientUnits="userSpaceOnUse">
<stop/>
<stop offset="1" stop-color="white"/>
</linearGradient>
<linearGradient id="paint55_linear" x1="686.462" y1="720.062" x2="615.062" y2="538.26" gradientUnits="userSpaceOnUse">
<stop stop-color="#97C3F9"/>
<stop offset="1" stop-color="#93C1F9"/>
</linearGradient>
<linearGradient id="paint56_linear" x1="712.667" y1="709.771" x2="641.266" y2="527.968" gradientUnits="userSpaceOnUse">
<stop/>
<stop offset="1" stop-color="white"/>
</linearGradient>
<linearGradient id="paint57_linear" x1="712.667" y1="709.771" x2="641.266" y2="527.968" gradientUnits="userSpaceOnUse">
<stop stop-color="#97C3F9"/>
<stop offset="1" stop-color="#93C1F9"/>
</linearGradient>
<linearGradient id="paint58_linear" x1="738.871" y1="699.479" x2="667.471" y2="517.677" gradientUnits="userSpaceOnUse">
<stop/>
<stop offset="1" stop-color="white"/>
</linearGradient>
<linearGradient id="paint59_linear" x1="738.871" y1="699.479" x2="667.471" y2="517.677" gradientUnits="userSpaceOnUse">
<stop stop-color="#97C3F9"/>
<stop offset="1" stop-color="#93C1F9"/>
</linearGradient>
<linearGradient id="paint60_linear" x1="625.111" y1="744.158" x2="553.71" y2="562.354" gradientUnits="userSpaceOnUse">
<stop/>
<stop offset="1" stop-color="white"/>
</linearGradient>
<linearGradient id="paint61_linear" x1="625.111" y1="744.158" x2="553.71" y2="562.354" gradientUnits="userSpaceOnUse">
<stop stop-color="#97C3F9"/>
<stop offset="1" stop-color="#93C1F9"/>
</linearGradient>
<linearGradient id="paint62_linear" x1="651.316" y1="733.866" x2="579.914" y2="552.063" gradientUnits="userSpaceOnUse">
<stop/>
<stop offset="1" stop-color="white"/>
</linearGradient>
<linearGradient id="paint63_linear" x1="651.316" y1="733.866" x2="579.914" y2="552.063" gradientUnits="userSpaceOnUse">
<stop stop-color="#97C3F9"/>
<stop offset="1" stop-color="#93C1F9"/>
</linearGradient>
<linearGradient id="paint64_linear" x1="677.52" y1="723.575" x2="606.118" y2="541.771" gradientUnits="userSpaceOnUse">
<stop/>
<stop offset="1" stop-color="white"/>
</linearGradient>
<linearGradient id="paint65_linear" x1="677.52" y1="723.575" x2="606.118" y2="541.771" gradientUnits="userSpaceOnUse">
<stop stop-color="#97C3F9"/>
<stop offset="1" stop-color="#93C1F9"/>
</linearGradient>
<linearGradient id="paint66_linear" x1="703.724" y1="713.283" x2="632.323" y2="531.48" gradientUnits="userSpaceOnUse">
<stop/>
<stop offset="1" stop-color="white"/>
</linearGradient>
<linearGradient id="paint67_linear" x1="703.724" y1="713.283" x2="632.323" y2="531.48" gradientUnits="userSpaceOnUse">
<stop stop-color="#97C3F9"/>
<stop offset="1" stop-color="#93C1F9"/>
</linearGradient>
<linearGradient id="paint68_linear" x1="729.929" y1="702.992" x2="658.527" y2="521.188" gradientUnits="userSpaceOnUse">
<stop/>
<stop offset="1" stop-color="white"/>
</linearGradient>
<linearGradient id="paint69_linear" x1="729.929" y1="702.992" x2="658.527" y2="521.188" gradientUnits="userSpaceOnUse">
<stop stop-color="#97C3F9"/>
<stop offset="1" stop-color="#93C1F9"/>
</linearGradient>
<linearGradient id="paint70_linear" x1="616.169" y1="747.67" x2="544.767" y2="565.866" gradientUnits="userSpaceOnUse">
<stop/>
<stop offset="1" stop-color="white"/>
</linearGradient>
<linearGradient id="paint71_linear" x1="616.169" y1="747.67" x2="544.767" y2="565.866" gradientUnits="userSpaceOnUse">
<stop stop-color="#97C3F9"/>
<stop offset="1" stop-color="#93C1F9"/>
</linearGradient>
<linearGradient id="paint72_linear" x1="642.373" y1="737.378" x2="570.972" y2="555.575" gradientUnits="userSpaceOnUse">
<stop/>
<stop offset="1" stop-color="white"/>
</linearGradient>
<linearGradient id="paint73_linear" x1="642.373" y1="737.378" x2="570.972" y2="555.575" gradientUnits="userSpaceOnUse">
<stop stop-color="#97C3F9"/>
<stop offset="1" stop-color="#93C1F9"/>
</linearGradient>
<linearGradient id="paint74_linear" x1="668.578" y1="727.087" x2="597.176" y2="545.283" gradientUnits="userSpaceOnUse">
<stop/>
<stop offset="1" stop-color="white"/>
</linearGradient>
<linearGradient id="paint75_linear" x1="668.578" y1="727.087" x2="597.176" y2="545.283" gradientUnits="userSpaceOnUse">
<stop stop-color="#97C3F9"/>
<stop offset="1" stop-color="#93C1F9"/>
</linearGradient>
<linearGradient id="paint76_linear" x1="694.782" y1="716.795" x2="623.38" y2="534.992" gradientUnits="userSpaceOnUse">
<stop/>
<stop offset="1" stop-color="white"/>
</linearGradient>
<linearGradient id="paint77_linear" x1="694.782" y1="716.795" x2="623.38" y2="534.992" gradientUnits="userSpaceOnUse">
<stop stop-color="#97C3F9"/>
<stop offset="1" stop-color="#93C1F9"/>
</linearGradient>
<linearGradient id="paint78_linear" x1="720.986" y1="706.504" x2="649.585" y2="524.7" gradientUnits="userSpaceOnUse">
<stop/>
<stop offset="1" stop-color="white"/>
</linearGradient>
<linearGradient id="paint79_linear" x1="720.986" y1="706.504" x2="649.585" y2="524.7" gradientUnits="userSpaceOnUse">
<stop stop-color="#97C3F9"/>
<stop offset="1" stop-color="#93C1F9"/>
</linearGradient>
<linearGradient id="paint80_linear" x1="607.227" y1="751.182" x2="535.825" y2="569.378" gradientUnits="userSpaceOnUse">
<stop/>
<stop offset="1" stop-color="white"/>
</linearGradient>
<linearGradient id="paint81_linear" x1="607.227" y1="751.182" x2="535.825" y2="569.378" gradientUnits="userSpaceOnUse">
<stop stop-color="#97C3F9"/>
<stop offset="1" stop-color="#93C1F9"/>
</linearGradient>
<linearGradient id="paint82_linear" x1="633.431" y1="740.89" x2="562.029" y2="559.087" gradientUnits="userSpaceOnUse">
<stop/>
<stop offset="1" stop-color="white"/>
</linearGradient>
<linearGradient id="paint83_linear" x1="633.431" y1="740.89" x2="562.029" y2="559.087" gradientUnits="userSpaceOnUse">
<stop stop-color="#97C3F9"/>
<stop offset="1" stop-color="#93C1F9"/>
</linearGradient>
<linearGradient id="paint84_linear" x1="659.635" y1="730.599" x2="588.234" y2="548.795" gradientUnits="userSpaceOnUse">
<stop/>
<stop offset="1" stop-color="white"/>
</linearGradient>
<linearGradient id="paint85_linear" x1="659.635" y1="730.599" x2="588.234" y2="548.795" gradientUnits="userSpaceOnUse">
<stop stop-color="#97C3F9"/>
<stop offset="1" stop-color="#93C1F9"/>
</linearGradient>
<linearGradient id="paint86_linear" x1="685.84" y1="720.307" x2="614.438" y2="538.504" gradientUnits="userSpaceOnUse">
<stop/>
<stop offset="1" stop-color="white"/>
</linearGradient>
<linearGradient id="paint87_linear" x1="685.84" y1="720.307" x2="614.438" y2="538.504" gradientUnits="userSpaceOnUse">
<stop stop-color="#97C3F9"/>
<stop offset="1" stop-color="#93C1F9"/>
</linearGradient>
<linearGradient id="paint88_linear" x1="712.044" y1="710.016" x2="640.642" y2="528.212" gradientUnits="userSpaceOnUse">
<stop/>
<stop offset="1" stop-color="white"/>
</linearGradient>
</defs>
</svg>
